# xmcd
#
# Track frame offsets:
#	150
#	14730
#	24705
#	36607
#	52455
#	65142
#	79172
#	92445
#	102825
#	119867
#	134840
#	143742
#	155500
#	170870
#
# Disc length: 2469 seconds
#
# Revision: 0
# Processed by: cddbd v1.4PL0 Copyright (c) Steve Scherf et al.
# Submitted via: MusicWizard 6.0.0
#
DISCID=e009a30e
DTITLE=Charlie Feathers - Charlie Feathers
DYEAR=1991
DGENRE=Rockabilly
TTITLE0=A Man In Love
TTITLE1=When You Come Around
TTITLE2=Pardon Me Mister
TTITLE3=Fraulein
TTITLE4=Defrost Your Heart
TTITLE5=Mean Woman Blues
TTITLE6=(I Don't Care) If Tomorrow Never Comes
TTITLE7=Cootzie Coo
TTITLE8=We Can't Seem To Remember To Forget
TTITLE9=A Long Time Ago
TTITLE10=Seasons Of My Heart
TTITLE11=Uh Huh Honey
TTITLE12=You're Right, I'm Left, She's Gone
TTITLE13=Oklahoma Hills
EXTD=(c)1991 Elektra Entertainment /Warner Bros Germany\nElecktra Nonesuch American Explorer Serie
EXTD=s\nProduced by Ben Vaughn
EXTT0=
EXTT1=
EXTT2=
EXTT3=
EXTT4=
EXTT5=
EXTT6=
EXTT7=
EXTT8=
EXTT9=
EXTT10=
EXTT11=
EXTT12=
EXTT13=
PLAYORDER=
